<svg height="512" viewBox="0 0 58 58" width="512" xmlns="http://www.w3.org/2000/svg"><g id="012---Trypewriter" fill="none"><path id="Shape" d="m49 2v20h-40v-20c.0032948-1.10320187.89679813-1.9967052 2-2h36c1.1032019.0032948 1.9967052.89679813 2 2z" fill="#bdc3c7"/><path id="Shape" d="m49 2v16h-40v-16c.0032948-1.10320187.89679813-1.9967052 2-2h36c1.1032019.0032948 1.9967052.89679813 2 2z" fill="#ecf0f1"/><path id="Shape" d="m36 6h-14c-.5522847 0-1-.44771525-1-1s.4477153-1 1-1h14c.5522847 0 1 .44771525 1 1s-.4477153 1-1 1z" fill="#3f5c6c"/><path id="Shape" d="m16 12h-3c-.5522847 0-1-.4477153-1-1s.4477153-1 1-1h3c.5522847 0 1 .4477153 1 1s-.4477153 1-1 1z" fill="#3f5c6c"/><path id="Shape" d="m45 12h-25c-.5522847 0-1-.4477153-1-1s.4477153-1 1-1h25c.5522847 0 1 .4477153 1 1s-.4477153 1-1 1z" fill="#3f5c6c"/><path id="Shape" d="m45 16h-32c-.5522847 0-1-.4477153-1-1s.4477153-1 1-1h32c.5522847 0 1 .4477153 1 1s-.4477153 1-1 1z" fill="#3f5c6c"/><path id="Shape" d="m5 25h-4c-.55228475 0-1-.4477153-1-1s.44771525-1 1-1h4c.55228475 0 1 .4477153 1 1s-.44771525 1-1 1z" fill="#2c3e50"/><path id="Shape" d="m1 29c-.55228475 0-1-.4477153-1-1v-8c0-.5522847.44771525-1 1-1s1 .4477153 1 1v8c0 .5522847-.44771525 1-1 1z" fill="#2c3e50"/><path id="Shape" d="m57 25h-4c-.5522847 0-1-.4477153-1-1s.4477153-1 1-1h4c.5522847 0 1 .4477153 1 1s-.4477153 1-1 1z" fill="#2c3e50"/><path id="Shape" d="m57 29c-.5522847 0-1-.4477153-1-1v-8c0-.5522847.4477153-1 1-1s1 .4477153 1 1v8c0 .5522847-.4477153 1-1 1z" fill="#2c3e50"/><path id="Shape" d="m55 36v18h-52v-18c0-4.418278 3.581722-8 8-8h36c4.418278 0 8 3.581722 8 8z" fill="#c03a2b"/><path id="Shape" d="m55 38v18h-52v-18c0-4.418278 3.581722-8 8-8h36c4.418278 0 8 3.581722 8 8z" fill="#e64c3c"/><rect id="Rectangle-path" fill="#35495e" height="8" rx="2" width="48" x="5" y="20"/><rect id="Rectangle-path" fill="#3f5c6c" height="6" rx="2" width="48" x="5" y="20"/><g fill="#2c3e50"><path id="Shape" d="m29 40c-.5522847 0-1-.4477153-1-1v-2c0-.5522847.4477153-1 1-1s1 .4477153 1 1v2c0 .5522847-.4477153 1-1 1z"/><path id="Shape" d="m37 40c-.5522847 0-1-.4477153-1-1v-2c0-.5522847.4477153-1 1-1s1 .4477153 1 1v2c0 .5522847-.4477153 1-1 1z"/><path id="Shape" d="m45 40c-.5522847 0-1-.4477153-1-1v-2c0-.5522847.4477153-1 1-1s1 .4477153 1 1v2c0 .5522847-.4477153 1-1 1z"/><path id="Shape" d="m21 40c-.5522847 0-1-.4477153-1-1v-2c0-.5522847.4477153-1 1-1s1 .4477153 1 1v2c0 .5522847-.4477153 1-1 1z"/><path id="Shape" d="m13 40c-.5522847 0-1-.4477153-1-1v-2c0-.5522847.4477153-1 1-1s1 .4477153 1 1v2c0 .5522847-.4477153 1-1 1z"/><path id="Shape" d="m25 50c-.5522847 0-1-.4477153-1-1v-2c0-.5522847.4477153-1 1-1s1 .4477153 1 1v2c0 .5522847-.4477153 1-1 1z"/><path id="Shape" d="m33 50c-.5522847 0-1-.4477153-1-1v-2c0-.5522847.4477153-1 1-1s1 .4477153 1 1v2c0 .5522847-.4477153 1-1 1z"/><path id="Shape" d="m41 50c-.5522847 0-1-.4477153-1-1v-2c0-.5522847.4477153-1 1-1s1 .4477153 1 1v2c0 .5522847-.4477153 1-1 1z"/><path id="Shape" d="m49 50c-.5522847 0-1-.4477153-1-1v-2c0-.5522847.4477153-1 1-1s1 .4477153 1 1v2c0 .5522847-.4477153 1-1 1z"/><path id="Shape" d="m17 50c-.5522847 0-1-.4477153-1-1v-2c0-.5522847.4477153-1 1-1s1 .4477153 1 1v2c0 .5522847-.4477153 1-1 1z"/><path id="Shape" d="m9 50c-.55228475 0-1-.4477153-1-1v-2c0-.5522847.44771525-1 1-1s1 .4477153 1 1v2c0 .5522847-.44771525 1-1 1z"/></g><circle id="Oval" cx="29" cy="35" fill="#35495e" r="3"/><circle id="Oval" cx="37" cy="35" fill="#35495e" r="3"/><circle id="Oval" cx="45" cy="35" fill="#35495e" r="3"/><circle id="Oval" cx="21" cy="35" fill="#35495e" r="3"/><circle id="Oval" cx="13" cy="35" fill="#35495e" r="3"/><circle id="Oval" cx="25" cy="45" fill="#35495e" r="3"/><circle id="Oval" cx="33" cy="45" fill="#35495e" r="3"/><circle id="Oval" cx="41" cy="45" fill="#35495e" r="3"/><circle id="Oval" cx="49" cy="45" fill="#35495e" r="3"/><circle id="Oval" cx="17" cy="45" fill="#35495e" r="3"/><circle id="Oval" cx="9" cy="45" fill="#35495e" r="3"/><path id="Shape" d="m56 54h-54c-1.1045695 0-2 .8954305-2 2s.8954305 2 2 2h54c1.1045695 0 2-.8954305 2-2s-.8954305-2-2-2z" fill="#3f5c6c"/></g></svg>