<svg height="512" viewBox="0 0 60 60" width="512" xmlns="http://www.w3.org/2000/svg"><g id="012---Trypewriter"><path id="Shape" d="m57 54v-17c-.0024785-2.8890574-1.3941812-5.600645-3.74-7.287 1.0577835-.4895325 1.7362782-1.5474383 1.74-2.713v-1h2v3c0 .5522847.4477153 1 1 1s1-.4477153 1-1v-8c0-.5522847-.4477153-1-1-1s-1 .4477153-1 1v3h-2v-1c0-1.6568542-1.3431458-3-3-3h-1v-17c0-1.65685425-1.3431458-3-3-3h-36c-1.6568542 0-3 1.34314575-3 3v17h-1c-1.65685425 0-3 1.3431458-3 3v1h-2v-3c0-.5522847-.44771525-1-1-1s-1 .4477153-1 1v8c0 .5522847.44771525 1 1 1s1-.4477153 1-1v-3h2v1c.00372181 1.1655617.68221653 2.2234675 1.74 2.713-2.34581876 1.686355-3.7375215 4.3979426-3.74 7.287v17c-1.65685425 0-3 1.3431458-3 3s1.34314575 3 3 3h54c1.6568542 0 3-1.3431458 3-3s-1.3431458-3-3-3zm-46-51c0-.55228475.4477153-1 1-1h36c.5522847 0 1 .44771525 1 1v17h-38zm-3 25c-.55228475 0-1-.4477153-1-1v-4c0-.5522847.44771525-1 1-1h44c.5522847 0 1 .4477153 1 1v4c0 .5522847-.4477153 1-1 1zm-3 9c.00440864-3.8641657 3.13583434-6.9955914 7-7h36c3.8641657.0044086 6.9955914 3.1358343 7 7v17h-50zm52 21h-54c-.55228475 0-1-.4477153-1-1s.44771525-1 1-1h54c.5522847 0 1 .4477153 1 1s-.4477153 1-1 1z"/><path id="Shape" d="m23 7h14c.5522847 0 1-.44771525 1-1s-.4477153-1-1-1h-14c-.5522847 0-1 .44771525-1 1s.4477153 1 1 1z"/><path id="Shape" d="m14 13h3c.5522847 0 1-.4477153 1-1s-.4477153-1-1-1h-3c-.5522847 0-1 .4477153-1 1s.4477153 1 1 1z"/><path id="Shape" d="m46 11h-25c-.5522847 0-1 .4477153-1 1s.4477153 1 1 1h25c.5522847 0 1-.4477153 1-1s-.4477153-1-1-1z"/><path id="Shape" d="m46 15h-32c-.5522847 0-1 .4477153-1 1s.4477153 1 1 1h32c.5522847 0 1-.4477153 1-1s-.4477153-1-1-1z"/><path id="Shape" d="m31 38.816c1.3775467-.4870363 2.2038721-1.8956662 1.9567957-3.3357331-.2470764-1.4400668-1.4956868-2.492694-2.9567957-2.492694s-2.7097193 1.0526272-2.9567957 2.492694c-.2470764 1.4400669.579249 2.8486968 1.9567957 3.3357331v1.184c0 .5522847.4477153 1 1 1s1-.4477153 1-1zm-1-3.816c.5522847 0 1 .4477153 1 1s-.4477153 1-1 1-1-.4477153-1-1 .4477153-1 1-1z"/><path id="Shape" d="m39 38.816c1.3775467-.4870363 2.2038721-1.8956662 1.9567957-3.3357331-.2470764-1.4400668-1.4956868-2.492694-2.9567957-2.492694s-2.7097193 1.0526272-2.9567957 2.492694c-.2470764 1.4400669.579249 2.8486968 1.9567957 3.3357331v1.184c0 .5522847.4477153 1 1 1s1-.4477153 1-1zm-1-3.816c.5522847 0 1 .4477153 1 1s-.4477153 1-1 1-1-.4477153-1-1 .4477153-1 1-1z"/><path id="Shape" d="m47 38.816c1.3775467-.4870363 2.2038721-1.8956662 1.9567957-3.3357331-.2470764-1.4400668-1.4956868-2.492694-2.9567957-2.492694s-2.7097193 1.0526272-2.9567957 2.492694c-.2470764 1.4400669.579249 2.8486968 1.9567957 3.3357331v1.184c0 .5522847.4477153 1 1 1s1-.4477153 1-1zm-1-3.816c.5522847 0 1 .4477153 1 1s-.4477153 1-1 1-1-.4477153-1-1 .4477153-1 1-1z"/><path id="Shape" d="m23 38.816c1.3775467-.4870363 2.2038721-1.8956662 1.9567957-3.3357331-.2470764-1.4400668-1.4956868-2.492694-2.9567957-2.492694s-2.7097193 1.0526272-2.9567957 2.492694c-.2470764 1.4400669.579249 2.8486968 1.9567957 3.3357331v1.184c0 .5522847.4477153 1 1 1s1-.4477153 1-1zm-1-3.816c.5522847 0 1 .4477153 1 1s-.4477153 1-1 1-1-.4477153-1-1 .4477153-1 1-1z"/><path id="Shape" d="m15 38.816c1.3775467-.4870363 2.2038721-1.8956662 1.9567957-3.3357331-.2470764-1.4400668-1.4956868-2.492694-2.9567957-2.492694s-2.7097193 1.0526272-2.9567957 2.492694c-.2470764 1.4400669.579249 2.8486968 1.9567957 3.3357331v1.184c0 .5522847.4477153 1 1 1s1-.4477153 1-1zm-1-3.816c.5522847 0 1 .4477153 1 1s-.4477153 1-1 1-1-.4477153-1-1 .4477153-1 1-1z"/><path id="Shape" d="m26 43c-1.4594373-.0027654-2.7080809 1.0474881-2.9553873 2.485822s.5788398 2.8453257 1.9553873 3.330178v1.184c0 .5522847.4477153 1 1 1s1-.4477153 1-1v-1.184c1.3765475-.4848523 2.2026937-1.8918441 1.9553873-3.330178s-1.49595-2.4885874-2.9553873-2.485822zm0 4c-.5522847 0-1-.4477153-1-1s.4477153-1 1-1 1 .4477153 1 1-.4477153 1-1 1z"/><path id="Shape" d="m34 43c-1.4594373-.0027654-2.7080809 1.0474881-2.9553873 2.485822s.5788398 2.8453257 1.9553873 3.330178v1.184c0 .5522847.4477153 1 1 1s1-.4477153 1-1v-1.184c1.3765475-.4848523 2.2026937-1.8918441 1.9553873-3.330178s-1.49595-2.4885874-2.9553873-2.485822zm0 4c-.5522847 0-1-.4477153-1-1s.4477153-1 1-1 1 .4477153 1 1-.4477153 1-1 1z"/><path id="Shape" d="m42 43c-1.4594373-.0027654-2.7080809 1.0474881-2.9553873 2.485822s.5788398 2.8453257 1.9553873 3.330178v1.184c0 .5522847.4477153 1 1 1s1-.4477153 1-1v-1.184c1.3765475-.4848523 2.2026937-1.8918441 1.9553873-3.330178s-1.49595-2.4885874-2.9553873-2.485822zm0 4c-.5522847 0-1-.4477153-1-1s.4477153-1 1-1 1 .4477153 1 1-.4477153 1-1 1z"/><path id="Shape" d="m50 43c-1.4594373-.0027654-2.7080809 1.0474881-2.9553873 2.485822s.5788398 2.8453257 1.9553873 3.330178v1.184c0 .5522847.4477153 1 1 1s1-.4477153 1-1v-1.184c1.3765475-.4848523 2.2026937-1.8918441 1.9553873-3.330178s-1.49595-2.4885874-2.9553873-2.485822zm0 4c-.5522847 0-1-.4477153-1-1s.4477153-1 1-1 1 .4477153 1 1-.4477153 1-1 1z"/><path id="Shape" d="m18 43c-1.4594373-.0027654-2.7080809 1.0474881-2.9553873 2.485822s.5788398 2.8453257 1.9553873 3.330178v1.184c0 .5522847.4477153 1 1 1s1-.4477153 1-1v-1.184c1.3765475-.4848523 2.2026937-1.8918441 1.9553873-3.330178s-1.49595-2.4885874-2.9553873-2.485822zm0 4c-.5522847 0-1-.4477153-1-1s.4477153-1 1-1 1 .4477153 1 1-.4477153 1-1 1z"/><path id="Shape" d="m10 43c-1.45943726-.0027654-2.70808095 1.0474881-2.95538732 2.485822-.24730638 1.4383339.57883984 2.8453257 1.95538732 3.330178v1.184c0 .5522847.44771525 1 1 1 .5522847 0 1-.4477153 1-1v-1.184c1.3765475-.4848523 2.2026937-1.8918441 1.9553873-3.330178s-1.49595-2.4885874-2.9553873-2.485822zm0 4c-.55228475 0-1-.4477153-1-1s.44771525-1 1-1c.5522847 0 1 .4477153 1 1s-.4477153 1-1 1z"/></g></svg>